<svg width="70" height="17" viewBox="0 0 70 17" fill="none" xmlns="http://www.w3.org/2000/svg">
<path d="M6.21283 0.557143C7.33207 0.0384955 8.69225 -0.0533397 9.914 0.024916C11.2385 0.109793 12.4762 0.400271 13.2226 0.64601L13.6298 0.779799L13.5595 1.20265L12.6757 6.50538L12.6191 6.84425L12.4081 6.88624C12.355 6.738 12.2889 6.59286 12.2079 6.45265C11.3812 5.02061 9.39049 4.6218 7.76165 5.56203C6.13277 6.50246 5.48267 8.4258 6.30951 9.85792C7.13635 11.29 9.12691 11.689 10.7558 10.7485C11.3988 10.3773 11.886 9.85105 12.1933 9.26417L12.2763 9.30226L12.206 9.68507L11.2187 15.0386L11.1757 15.272L10.9687 15.3862C10.0615 15.8875 8.77336 16.0275 7.60638 16.0288C6.41932 16.0301 5.26252 15.8864 4.55169 15.7515L4.1933 15.6831L4.18646 15.6343C3.8049 15.5158 3.42121 15.35 3.039 15.1294C-0.262688 13.2231 -0.917739 8.50668 1.28607 4.68898C2.46556 2.64605 4.27734 1.18354 6.21283 0.557143Z" fill="white"/>
<path d="M25.1067 0.602661L28.2776 15.2618L28.4084 15.8673H22.5969L22.4417 13.4445H17.5549L16.5891 15.8673H10.6516L11.0198 15.1417L18.4543 0.481567L18.593 0.20813H25.0217L25.1067 0.602661ZM18.8401 10.2218H22.2366L21.9084 5.09485L20.9456 4.94153L18.8401 10.2218Z" fill="white"/>
<path d="M66.6746 0.602661L69.8455 15.2618L69.9763 15.8673H64.1648L64.0095 13.4445H59.1228L58.157 15.8673H52.2195L52.5876 15.1417L60.0222 0.481567L60.1609 0.20813H66.5896L66.6746 0.602661ZM60.408 10.2218H63.8044L63.4763 5.09485L62.5134 4.94153L60.408 10.2218Z" fill="white"/>
<path d="M31.2724 0.656311L28.8811 15.4718H34.2875L36.3668 0.656311H31.2724Z" fill="white"/>
<path d="M42.2928 7.51821L38.9658 0.760254H45.3599L48.7909 7.51821H42.2928Z" fill="white"/>
<path d="M43.6964 11.469L45.3599 15.2639H51.9619L48.271 8.45393L43.6964 11.469Z" fill="white"/>
<path d="M41.8774 15.3675H35.4829L42.0044 8.45438H48.3003L41.8774 15.3675ZM55.4966 0.708282L49.0728 7.62234H42.7886L49.311 0.708282H55.4966Z" fill="#F8A13A"/>
</svg>
